<svg width="28" height="28" viewBox="0 0 28 28" fill="none" xmlns="http://www.w3.org/2000/svg">
<path fill-rule="evenodd" clip-rule="evenodd" d="M4.66663 4.6665C2.73363 4.6665 1.16663 6.23351 1.16663 8.1665V19.8332C1.16663 21.7662 2.73363 23.3332 4.66663 23.3332H23.3333C25.2663 23.3332 26.8333 21.7662 26.8333 19.8332V8.1665C26.8333 6.23351 25.2663 4.6665 23.3333 4.6665H4.66663ZM3.49996 8.47785V19.8332C3.49996 20.4775 4.02229 20.9998 4.66663 20.9998H23.3333C23.9776 20.9998 24.5 20.4775 24.5 19.8332V8.47794L16.1488 14.9733C14.8849 15.9563 13.1151 15.9563 11.8512 14.9733L3.49996 8.47785ZM22.5998 6.99984H5.40024L13.2838 13.1315C13.705 13.4591 14.295 13.4591 14.7163 13.1315L22.5998 6.99984Z" fill="#7F713E"/>
</svg>
