<svg width="22" height="22" viewBox="0 0 22 22" fill="none" xmlns="http://www.w3.org/2000/svg">
<path fill-rule="evenodd" clip-rule="evenodd" d="M21.0202 3.48744C21.7036 2.80402 21.7036 1.69598 21.0202 1.01256C20.3367 0.329146 19.2287 0.329146 18.5453 1.01256L11.0327 8.52513L3.52015 1.01256C2.83673 0.329147 1.7287 0.329147 1.04528 1.01256C0.36186 1.69598 0.36186 2.80402 1.04528 3.48744L8.55784 11L1.04528 18.5126C0.36186 19.196 0.36186 20.304 1.04528 20.9874C1.7287 21.6709 2.83673 21.6709 3.52015 20.9874L11.0327 13.4749L18.5453 20.9874C19.2287 21.6709 20.3367 21.6709 21.0202 20.9874C21.7036 20.304 21.7036 19.196 21.0202 18.5126L13.5076 11L21.0202 3.48744Z" fill="white"/>
</svg>
