<svg width="25" height="22" viewBox="0 0 25 22" fill="none" xmlns="http://www.w3.org/2000/svg">
<path d="M1.53271 3.57324H22.5327C23.3611 3.57324 24.0327 2.90167 24.0327 2.07324C24.0327 1.24481 23.3611 0.573242 22.5327 0.573242H1.53271C0.704288 0.573242 0.0327148 1.24482 0.0327148 2.07324C0.0327148 2.90167 0.704288 3.57324 1.53271 3.57324Z" fill="white"/>
<path d="M22.5327 12.5732H1.53271C0.704288 12.5732 0.0327148 11.9017 0.0327148 11.0732C0.0327148 10.2448 0.704288 9.57324 1.53271 9.57324H22.5327C23.3611 9.57324 24.0327 10.2448 24.0327 11.0732C24.0327 11.9017 23.3611 12.5732 22.5327 12.5732Z" fill="white"/>
<path d="M22.5327 21.5732H1.53271C0.704288 21.5732 0.0327148 20.9017 0.0327148 20.0732C0.0327148 19.2448 0.704288 18.5732 1.53271 18.5732H22.5327C23.3611 18.5732 24.0327 19.2448 24.0327 20.0732C24.0327 20.9017 23.3611 21.5732 22.5327 21.5732Z" fill="white"/>
</svg>
