<svg width="28" height="28" viewBox="0 0 28 28" fill="none" xmlns="http://www.w3.org/2000/svg">
<path d="M14 22.167C14.9665 22.167 15.75 21.3835 15.75 20.417C15.75 19.4505 14.9665 18.667 14 18.667C13.0335 18.667 12.25 19.4505 12.25 20.417C12.25 21.3835 13.0335 22.167 14 22.167Z" fill="#7F713E"/>
<path fill-rule="evenodd" clip-rule="evenodd" d="M8.16663 26.8337C6.23363 26.8337 4.66663 25.2667 4.66663 23.3337V4.66699C4.66663 2.734 6.23363 1.16699 8.16663 1.16699H19.8333C21.7663 1.16699 23.3333 2.73399 23.3333 4.66699V23.3337C23.3333 25.2667 21.7663 26.8337 19.8333 26.8337H8.16663ZM6.99996 23.3337C6.99996 23.978 7.52229 24.5003 8.16663 24.5003H19.8333C20.4776 24.5003 21 23.978 21 23.3337L21 4.66699C21 4.02266 20.4776 3.50032 19.8333 3.50032L8.16663 3.50033C7.52229 3.50033 6.99996 4.02266 6.99996 4.66699L6.99996 23.3337Z" fill="#7F713E"/>
</svg>
