<svg width="28" height="28" viewBox="0 0 28 28" fill="none" xmlns="http://www.w3.org/2000/svg">
<path fill-rule="evenodd" clip-rule="evenodd" d="M14.8407 26.4752C14.6207 26.7038 14.3172 26.833 14 26.833C13.6827 26.833 13.3788 26.7035 13.1589 26.4749L13.0588 26.3693C13.0588 26.3693 12.905 26.2052 12.7899 26.08C12.5599 25.8296 12.2333 25.4677 11.8422 25.0164C11.0612 24.1151 10.0175 22.8511 8.97114 21.4037C7.92743 19.96 6.86468 18.3112 6.05871 16.6419C5.26154 14.9907 4.66663 13.2207 4.66663 11.5603C4.66663 6.44987 8.85973 2.33301 14 2.33301C19.1402 2.33301 23.3333 6.44987 23.3333 11.5603C23.3333 13.2207 22.7384 14.9907 21.9412 16.6419C21.1352 18.3112 20.0725 19.96 19.0288 21.4037C17.9824 22.8511 16.9387 24.1151 16.1577 25.0164C15.7666 25.4677 15.44 25.8296 15.21 26.08C15.21 26.08 14.9035 26.4085 14.8407 26.4752ZM6.99996 11.5603C6.99996 7.76719 10.1195 4.66634 14 4.66634C17.8804 4.66634 21 7.76719 21 11.5603C21 12.7091 20.574 14.1069 19.84 15.6274C19.1147 17.1296 18.1358 18.6563 17.1378 20.0367C16.1425 21.4135 15.1446 22.6226 14.3943 23.4883C14.2534 23.651 14.1213 23.8013 14 23.9381C13.8786 23.8013 13.7466 23.651 13.6056 23.4883C12.8554 22.6226 11.8574 21.4135 10.8621 20.0367C9.86415 18.6563 8.88524 17.1296 8.15996 15.6274C7.42587 14.1069 6.99996 12.7091 6.99996 11.5603Z" fill="#7F713E"/>
<path fill-rule="evenodd" clip-rule="evenodd" d="M10.5 11.6663C10.5 9.73334 12.067 8.16634 14 8.16634C15.933 8.16634 17.5 9.73334 17.5 11.6663C17.5 13.5993 15.933 15.1663 14 15.1663C12.067 15.1663 10.5 13.5993 10.5 11.6663ZM12.8333 11.6663C12.8333 11.022 13.3556 10.4997 14 10.4997C14.6443 10.4997 15.1666 11.022 15.1666 11.6663C15.1666 12.3107 14.6443 12.833 14 12.833C13.3556 12.833 12.8333 12.3107 12.8333 11.6663Z" fill="#7F713E"/>
</svg>
