<svg width="24" height="24" viewBox="0 0 24 24" fill="none" xmlns="http://www.w3.org/2000/svg">
<path d="M13.37 2.09383C10.9772 1.76469 8.54622 2.31238 6.5258 3.63579C4.50538 4.9592 3.03202 6.96893 2.37777 9.2939C1.72353 11.6189 1.93258 14.102 2.96634 16.2849C4.00009 18.4677 5.78873 20.2029 8.00197 21.1698C7.94212 20.4016 7.99706 19.6288 8.16497 18.8768C8.34997 18.0378 9.46097 13.4138 9.46097 13.4138C9.23974 12.9179 9.12918 12.3798 9.13697 11.8368C9.13697 10.3518 9.99397 9.24383 11.06 9.24383C11.2515 9.24105 11.4413 9.27953 11.6166 9.35666C11.792 9.4338 11.9486 9.54778 12.0759 9.69086C12.2032 9.83393 12.2983 10.0027 12.3545 10.1858C12.4108 10.3689 12.427 10.5619 12.402 10.7518C12.402 11.6518 11.824 13.0138 11.522 14.2918C11.4623 14.5262 11.4585 14.7713 11.5109 15.0075C11.5633 15.2436 11.6705 15.4641 11.8237 15.6512C11.977 15.8383 12.172 15.9868 12.3932 16.0847C12.6144 16.1826 12.8554 16.2272 13.097 16.2148C14.995 16.2148 16.267 13.7838 16.267 10.9138C16.267 8.71383 14.81 7.06583 12.124 7.06583C11.4813 7.04086 10.8404 7.14676 10.2399 7.37709C9.63946 7.60742 9.09209 7.95738 8.63102 8.40572C8.16996 8.85406 7.80483 9.39144 7.5578 9.98521C7.31076 10.579 7.18698 11.2168 7.19397 11.8598C7.16534 12.5732 7.39548 13.2728 7.84197 13.8298C7.92541 13.8921 7.98633 13.9798 8.01555 14.0798C8.04477 14.1797 8.04071 14.2864 8.00397 14.3838C7.95797 14.5678 7.84197 15.0068 7.79597 15.1678C7.7864 15.2224 7.76415 15.274 7.731 15.3184C7.69784 15.3629 7.65472 15.3989 7.6051 15.4236C7.55549 15.4483 7.50076 15.461 7.44533 15.4607C7.3899 15.4604 7.33531 15.4471 7.28597 15.4218C5.90197 14.8678 5.24997 13.3448 5.24997 11.6058C5.24997 8.75883 7.63397 5.35083 12.404 5.35083C16.2 5.35083 18.724 8.12783 18.724 11.0978C18.724 15.0068 16.547 17.9458 13.33 17.9458C12.8492 17.9612 12.3722 17.8551 11.9433 17.6373C11.5144 17.4195 11.1473 17.0971 10.876 16.6998C10.876 16.6998 10.298 19.0158 10.184 19.4538C9.95127 20.2105 9.60788 20.9286 9.16497 21.5848C10.088 21.8648 11.047 22.0048 12.011 22.0008C13.3246 22.0019 14.6254 21.7438 15.8391 21.2414C17.0528 20.739 18.1555 20.0021 19.084 19.0729C20.0126 18.1438 20.7487 17.0406 21.2502 15.8265C21.7518 14.6125 22.0089 13.3114 22.007 11.9978C22.0057 9.58283 21.1308 7.24983 19.5436 5.42961C17.9564 3.6094 15.7643 2.4249 13.372 2.09483L13.37 2.09383Z" fill="#7F713E"/>
</svg>
